<svg width="223" height="56" viewBox="0 0 223 56" fill="none" xmlns="http://www.w3.org/2000/svg">
<g clip-path="url(#clip0)">
<path d="M32.5152 36.9655C31.7023 43.0345 29.8056 47.7241 27.367 51.0345C24.9283 54.3448 21.4058 56 17.0705 56C15.1738 56 13.819 55.4483 12.4642 54.6207C11.3803 53.7931 10.2965 52.4138 9.4836 50.7586L8.39976 55.1724H0L8.1288 0H17.8834L14.9028 20.4138C15.9866 19.0345 17.3414 18.2069 18.4253 17.3793C19.7801 16.5517 21.1349 16.2759 22.7606 16.2759C26.825 16.2759 29.5346 18.2069 31.1604 21.7931C32.7861 25.3793 33.3281 30.3448 32.2442 36.4138L32.5152 36.9655ZM22.7606 36.4138C23.3026 32.5517 23.3026 29.5172 23.0316 27.3103C22.4897 25.1034 21.4058 24 19.2382 24C18.1543 24 17.0705 24.5517 16.2576 25.1034C15.4447 25.6552 14.6318 26.4828 13.819 27.5862L11.1094 45.2414C11.3803 46.3448 11.9222 46.8966 12.7351 47.4483C13.548 48 14.3609 48.2759 15.7157 48.2759C17.6124 48.2759 19.2382 47.4483 20.322 45.5172C21.4058 43.5862 22.2187 40.8276 22.7606 37.2414V36.4138Z" fill="white"/>
<path d="M55.5468 49.9311C54.192 51.8621 52.8372 53.5173 51.2114 54.3449C49.5857 55.4483 47.689 56 45.7922 56C42.5407 56 40.1021 54.6207 38.4763 51.8621C36.8506 49.1035 36.5796 44.6897 37.3925 39.1725L40.644 17.1035H50.3986L47.147 39.1725C46.6051 42.7587 46.6051 45.2414 47.147 46.3449C47.689 47.7242 48.5018 48.2759 50.1276 48.2759C51.2114 48.2759 52.2953 48 53.1082 47.4483C53.921 46.8966 55.0049 46.3449 55.5468 45.5173L59.6112 16.8276H69.3657L63.9465 55.1725H55.8178L55.5468 49.9311Z" fill="white"/>
<path d="M88.6039 45.2414C88.8748 44.138 88.6039 43.0345 87.791 42.2069C86.9781 41.3793 85.6233 40.5517 83.1847 39.1724C79.6622 37.7931 76.9526 36.138 75.3269 34.2069C73.4301 32.8276 72.8882 30.3448 73.1592 27.5862C73.7011 24.2759 75.0559 21.7931 77.7655 19.5862C80.4751 17.3793 83.9976 16.2759 88.062 16.2759C92.1264 16.2759 95.3779 17.3793 97.5456 19.8621C99.9842 22.069 100.797 24.8276 100.255 28.4138V28.6897H90.7716C91.0425 27.0345 90.7716 25.6552 90.2296 24.8276C89.6877 24 88.6039 23.4483 87.2491 23.4483C86.1653 23.4483 85.0814 23.7242 84.2685 24.5517C83.4557 25.3793 82.9137 26.2069 82.6428 27.3104C82.3718 28.4138 82.6428 29.5173 83.4557 30.069C84.2685 30.6207 85.6233 31.7242 88.062 32.8276C91.8554 34.2069 94.565 35.8621 96.1908 37.7931C97.8165 39.7242 98.3584 42.2069 98.0875 45.2414C97.5456 48.5517 95.9198 51.3104 93.2102 53.2414C90.5006 55.1724 86.9781 56.2759 82.6428 56.2759C78.3074 56.2759 75.0559 54.8966 72.8882 52.4138C70.7205 49.9311 69.6367 46.8966 70.1786 43.8621V43.5862H79.1203C78.8493 45.7931 79.1203 47.1724 79.9332 48C80.7461 48.8276 81.8299 49.3793 83.4557 49.3793C84.8104 49.3793 85.8943 49.1035 86.7072 48.2759C87.791 47.4483 88.3329 46.3449 88.6039 45.2414Z" fill="white"/>
<path d="M115.971 21.2414C117.326 19.5862 118.68 18.2069 120.035 17.3793C121.661 16.5517 123.287 16 124.913 16C128.164 16 130.603 17.3793 132.228 20.1379C133.854 22.8966 134.125 27.0345 133.312 32.5517L130.332 55.1724H120.577L123.829 32.5517C124.371 29.2414 124.371 27.0345 123.829 25.931C123.287 24.8276 122.474 24 120.848 24C119.764 24 118.68 24.2759 117.868 24.8276C117.055 25.3793 116.242 25.931 115.429 26.7586L111.094 55.1724H101.339L109.468 0H119.222L115.971 21.2414Z" fill="white"/>
<path d="M146.86 55.1724H137.106L142.796 16.8276H152.55L146.86 55.1724ZM153.905 7.72414H144.151L145.235 0H154.989L153.905 7.72414Z" fill="white"/>
<path d="M121.661 42.7586C121.661 42.7586 90.2297 43.3103 90.2297 47.9999C90.2297 47.9999 87.791 50.4827 104.591 47.7241C104.591 47.7241 145.505 39.7241 172.06 41.931C172.06 41.931 208.368 41.3793 222.729 46.0689C222.729 46.0689 181.543 34.4827 123.558 42.4827L121.661 42.7586Z" fill="white"/>
<path d="M24.3864 9.93105V13.2414C25.4703 12.9655 26.2832 12.9655 27.367 12.6897V13.5173C24.6574 14.069 21.9478 14.6207 20.0511 14.8966C20.0511 14.8966 20.0511 15.1724 19.7801 15.1724L19.5092 13.7931H20.864V8.00001H21.9478C21.9478 8.27588 21.9478 8.27588 21.6768 8.27588V13.5173L23.5736 13.2414V6.6207H24.6574C24.6574 6.6207 24.6574 6.89656 24.3864 6.89656V9.10346H26.8251V9.93105H24.3864ZM32.2443 6.34484H28.4508C28.7218 10.7586 29.5347 14.069 30.8895 14.069C31.1604 14.069 31.4314 13.2414 31.4314 11.3104C31.7024 11.5862 31.9733 11.8621 32.2443 11.8621C31.9733 14.3448 31.7023 14.8966 30.6185 15.1724C28.4508 15.1724 27.638 11.3104 27.096 6.34484H19.7801V5.51725H27.638C27.638 4.41381 27.638 3.31036 27.638 2.20691H28.9928C28.9928 2.20691 28.9928 2.48277 28.7218 2.48277C28.7218 3.58622 28.7218 4.68967 28.7218 5.51725H32.5152V6.34484H32.2443ZM26.2832 2.75863V3.58622H20.864V2.75863H26.2832ZM29.5347 2.20691C30.3475 2.75863 31.4314 3.86208 31.7023 4.41381L30.8895 4.96553C30.6185 4.41381 29.8056 3.31036 28.9928 2.75863L29.5347 2.20691Z" fill="white"/>
<path d="M46.0633 7.44827H40.3731V13.2414H45.5213V14.069H34.412V13.5172H39.2893V7.44827H33.5991V6.62069H39.2893V1.93103H40.6441C40.6441 1.93103 40.6441 2.20689 40.3731 2.20689V6.34482H46.0633V7.44827Z" fill="white"/>
<path d="M50.9405 7.72411L49.3148 7.17238L49.5857 6.06894L51.4824 6.89652V5.51721H52.8372V7.17238L54.192 6.3448L54.463 7.44825L52.5663 7.99997L53.6501 9.10342L52.5663 9.65515L51.4824 8.27583L50.3986 9.37928L49.3148 8.82756L50.9405 7.72411Z" fill="white"/>
<path d="M57.9855 11.862H56.0887V2.48267H57.9855V11.862Z" fill="white"/>
<path d="M63.6756 11.862C62.5918 11.862 61.508 11.5862 60.966 11.0345C60.4241 10.4827 59.8822 9.65515 59.8822 8.82756V8.5517C59.8822 7.72411 60.1532 6.89652 60.966 6.3448C61.7789 5.79307 62.5918 5.51721 63.6756 5.51721C64.7595 5.51721 65.5724 5.79307 66.1143 6.3448C66.6562 6.89652 66.9272 7.72411 66.9272 8.5517V9.37928H62.0499C62.0499 9.93101 62.3208 10.2069 62.5918 10.7586C62.8628 11.0345 63.4047 11.3103 64.2176 11.3103C64.7595 11.3103 65.0304 11.3103 65.5724 11.0345C66.1143 10.7586 66.3852 10.7586 66.6562 10.7586L67.1981 11.5862C66.9272 11.862 66.3852 11.862 65.8433 12.1379C64.7595 11.862 64.2176 11.862 63.6756 11.862ZM63.4047 6.3448C62.8628 6.3448 62.5918 6.3448 62.3208 6.62066C62.0499 6.89652 61.7789 7.17238 61.7789 7.72411H65.0304C65.0304 7.44825 65.0304 6.89652 64.7595 6.62066C64.2176 6.62066 63.9466 6.3448 63.4047 6.3448Z" fill="white"/>
<path d="M68.011 8.82756C68.011 7.72411 68.2819 6.89652 68.8239 6.3448C69.3658 5.79307 70.1787 5.51721 71.2625 5.51721C71.8044 5.51721 72.0754 5.51721 72.6173 5.79307C73.1592 6.06894 73.4302 6.06894 73.4302 6.62066V5.51721H75.0559V11.862C75.0559 12.6896 74.785 13.2413 73.9721 13.7931C73.4302 14.3448 72.3463 14.3448 71.2625 14.3448C70.9915 14.3448 70.4496 14.3448 69.9077 14.3448C69.3658 14.3448 69.0948 14.0689 68.5529 14.0689L68.8239 12.9655C69.0948 12.9655 69.3658 13.2413 69.9077 13.2413C70.1787 13.2413 70.7206 13.2413 70.9915 13.2413C71.5335 13.2413 72.0754 13.2413 72.3463 12.9655C72.8883 12.6896 73.1592 12.4138 73.1592 11.862V11.3103C72.8883 11.5862 72.6173 11.862 72.3463 11.862C72.0754 11.862 71.5335 12.1379 71.2625 12.1379C70.1787 12.1379 69.3658 11.862 68.8239 11.3103C68.2819 10.4827 68.011 9.93101 68.011 8.82756ZM69.6367 8.82756C69.6367 9.37928 69.9077 9.93101 70.1787 10.2069C70.4496 10.4827 70.9915 10.7586 71.5335 10.7586C71.8044 10.7586 72.3463 10.7586 72.6173 10.4827C72.8883 10.2069 73.1592 10.2069 73.1592 9.931V7.17238C72.8883 6.89652 72.8883 6.62066 72.6173 6.62066C72.3463 6.62066 72.0754 6.3448 71.5335 6.3448C70.9915 6.3448 70.4496 6.62066 70.1787 6.89652C69.9077 7.17238 69.6367 7.99997 69.6367 8.82756Z" fill="white"/>
<path d="M81.8299 11.862C81.8299 11.5862 81.8299 11.5862 81.559 11.3103C81.288 11.0344 81.559 11.0344 81.559 10.7586C81.288 11.0344 81.0171 11.3103 80.4752 11.5862C79.9332 11.862 79.6623 11.862 79.1204 11.862C78.3075 11.862 77.4946 11.5862 77.2236 11.3103C76.6817 11.0344 76.4108 10.4827 76.4108 9.93099C76.4108 9.37926 76.6817 8.82754 77.2236 8.55168C77.7656 8.27582 78.8494 7.99995 79.9332 7.99995H81.288V7.44823C81.288 7.17237 81.288 6.89651 81.0171 6.62064C80.7461 6.34478 80.4751 6.34478 79.9332 6.34478C79.3913 6.34478 79.1204 6.34478 78.8494 6.62064C78.5784 6.89651 78.5784 7.17237 78.5784 7.17237H76.9527C76.9527 6.62064 77.2236 6.34478 77.7656 5.79306C78.3075 5.51719 79.1204 5.24133 80.2042 5.24133C81.0171 5.24133 81.8299 5.51719 82.3719 5.79306C82.9138 6.06892 83.1847 6.62064 83.1847 7.44823V10.2069C83.1847 10.4827 83.1847 10.7586 83.1847 11.0344C83.1847 11.3103 83.1847 11.5862 83.4557 11.862H81.8299ZM79.3913 10.7586C79.9332 10.7586 80.2042 10.7586 80.7461 10.4827C81.0171 10.2068 81.288 10.2068 81.559 9.93099V9.1034H80.2042C79.6623 9.1034 79.3913 9.1034 78.8494 9.37926C78.5784 9.65513 78.3075 9.93099 78.3075 10.2069C78.3075 10.4827 78.3075 10.7586 78.5784 10.7586C78.8494 10.7586 79.1204 10.7586 79.3913 10.7586Z" fill="white"/>
<path d="M88.6039 10.7586C89.1458 10.7586 89.4168 10.7586 89.6877 10.4827C89.9587 10.2069 90.2297 9.93101 90.2297 9.65514H91.8554C91.8554 10.2069 91.5845 10.7586 91.0425 11.3103C90.5006 11.862 89.6877 11.862 88.8749 11.862C87.791 11.862 86.7072 11.5862 86.1653 11.0345C85.6233 10.4827 85.0814 9.65515 85.0814 8.82756V8.5517C85.0814 7.72411 85.3524 6.89652 86.1653 6.3448C86.7072 5.79307 87.791 5.51721 88.8749 5.51721C89.6877 5.51721 90.5006 5.79307 91.0425 6.06894C91.5845 6.62066 91.8554 7.17238 91.8554 7.72411H90.2297C90.2297 7.44825 89.9587 7.17239 89.6877 6.89652C89.4168 6.62066 89.1458 6.62066 88.6039 6.62066C88.062 6.62066 87.5201 6.89652 87.2491 7.17238C86.9781 7.44825 86.7072 7.99997 86.7072 8.5517V8.82756C86.7072 9.37928 86.9781 9.93101 87.2491 10.2069C87.2491 10.7586 87.791 10.7586 88.6039 10.7586Z" fill="white"/>
<path d="M95.9198 9.37928L96.1908 9.93101L97.8165 5.51721H99.7133L96.4617 12.9655C96.1908 13.5172 95.9198 13.7931 95.6489 14.0689C95.3779 14.3448 94.836 14.6207 94.0231 14.6207C93.7521 14.6207 93.7521 14.6207 93.4812 14.6207C93.2102 14.6207 93.2102 14.6207 92.9393 14.6207L93.2102 13.5172H93.4812H93.7521C94.0231 13.5172 94.2941 13.5172 94.565 13.2414C94.836 12.9655 94.836 12.9655 95.1069 12.6896L95.3779 12.1379L92.3973 5.51721H94.2941L95.9198 9.37928Z" fill="white"/>
<path d="M102.152 7.72409L100.526 7.17237L100.797 6.06892L102.694 6.62064V5.24133H104.049V6.89651L105.674 6.34478L105.945 7.44823L104.049 7.99995L105.132 9.1034L104.049 9.65513L102.965 8.27582L101.881 9.37927L100.797 8.82754L102.152 7.72409Z" fill="white"/>
</g>
<defs>
<clipPath id="clip0">
<rect width="223" height="56" fill="white"/>
</clipPath>
</defs>
</svg>
