<svg width="118" height="30" viewBox="0 0 118 30" fill="none" xmlns="http://www.w3.org/2000/svg">
<g clip-path="url(#clip0)">
<path d="M17.2053 19.803C16.7752 23.0542 15.7716 25.5665 14.4812 27.3399C13.1908 29.1133 11.3269 30 9.03281 30C8.02916 30 7.31227 29.7044 6.59538 29.2611C6.02187 28.8177 5.44836 28.0788 5.01823 27.1921L4.44471 29.5567H0L4.30134 0H9.46294L7.88578 10.936C8.45929 10.197 9.17618 9.7537 9.7497 9.31035C10.4666 8.867 11.1835 8.71921 12.0437 8.71921C14.1944 8.71921 15.6282 9.7537 16.4885 11.6749C17.3487 13.5961 17.6355 16.2562 17.062 19.5074L17.2053 19.803ZM12.0437 19.5074C12.3305 17.4384 12.3305 15.8128 12.1871 14.6305C11.9004 13.4483 11.3269 12.8571 10.1798 12.8571C9.60632 12.8571 9.03281 13.1527 8.60267 13.4483C8.17254 13.7438 7.74241 14.1872 7.31227 14.7783L5.87849 24.2365C6.02187 24.8276 6.30863 25.1232 6.73876 25.4187C7.16889 25.7143 7.59903 25.8621 8.31592 25.8621C9.31956 25.8621 10.1798 25.4187 10.7533 24.3842C11.3269 23.3498 11.757 21.8719 12.0437 19.9507V19.5074Z" fill="#2B2A29"/>
<path d="M29.3925 26.7488C28.6756 27.7832 27.9587 28.6699 27.0984 29.1133C26.2381 29.7044 25.2345 30 24.2309 30C22.5103 30 21.2199 29.2611 20.3597 27.7832C19.4994 26.3054 19.356 23.9409 19.7861 20.9852L21.5067 9.16255H26.6683L24.9477 20.9852C24.661 22.9064 24.661 24.2364 24.9477 24.8276C25.2345 25.5665 25.6646 25.8621 26.5249 25.8621C27.0984 25.8621 27.6719 25.7143 28.1021 25.4187C28.5322 25.1231 29.1057 24.8276 29.3925 24.3842L31.5431 9.01477H36.7047L33.8372 29.5566H29.5358L29.3925 26.7488Z" fill="#2B2A29"/>
<path d="M46.8845 24.2364C47.0279 23.6452 46.8845 23.0541 46.4544 22.6107C46.0243 22.1674 45.3074 21.724 44.017 20.9851C42.1531 20.2462 40.7193 19.3595 39.859 18.325C38.8554 17.5861 38.5686 16.2561 38.712 14.7782C38.9988 13.0048 39.7156 11.6748 41.1494 10.4925C42.5832 9.31025 44.4471 8.71912 46.5978 8.71912C48.7484 8.71912 50.469 9.31025 51.616 10.6403C52.9064 11.8226 53.3365 13.3004 53.0498 15.2216V15.3694H48.0316C48.1749 14.4827 48.0316 13.7437 47.7448 13.3004C47.458 12.857 46.8845 12.5615 46.1676 12.5615C45.5941 12.5615 45.0206 12.7093 44.5905 13.1526C44.1604 13.596 43.8736 14.0393 43.7302 14.6304C43.5868 15.2216 43.7302 15.8127 44.1604 16.1083C44.5905 16.4038 45.3074 16.995 46.5978 17.5861C48.6051 18.325 50.0388 19.2117 50.8991 20.2462C51.7594 21.2807 52.0461 22.6107 51.9028 24.2364C51.616 26.0098 50.7557 27.4876 49.322 28.5221C47.8882 29.5566 46.0243 30.1477 43.7302 30.1477C41.4362 30.1477 39.7156 29.4088 38.5686 28.0787C37.4216 26.7487 36.8481 25.1231 37.1348 23.4974V23.3497H41.8663C41.7229 24.5319 41.8663 25.2708 42.2964 25.7142C42.7266 26.1575 43.3001 26.4531 44.1604 26.4531C44.8772 26.4531 45.4508 26.3053 45.8809 25.862C46.4544 25.4186 46.7412 24.8275 46.8845 24.2364Z" fill="#2B2A29"/>
<path d="M61.3657 11.3793C62.0826 10.4926 62.7995 9.7537 63.5164 9.31035C64.3766 8.867 65.2369 8.57143 66.0972 8.57143C67.8177 8.57143 69.1081 9.31035 69.9684 10.7882C70.8286 12.266 70.972 14.4828 70.5419 17.4384L68.9647 29.5567H63.8031L65.5237 17.4384C65.8104 15.665 65.8104 14.4828 65.5237 13.8916C65.2369 13.3005 64.8068 12.8571 63.9465 12.8571C63.373 12.8571 62.7995 13.0049 62.3693 13.3005C61.9392 13.5961 61.5091 13.8916 61.0789 14.335L58.7849 29.5567H53.6233L57.9246 0H63.0862L61.3657 11.3793Z" fill="#2B2A29"/>
<path d="M77.7108 29.5567H72.5492L75.5601 9.01478H80.7217L77.7108 29.5567ZM81.4386 4.13793H76.277L76.8505 0H82.0121L81.4386 4.13793Z" fill="#2B2A29"/>
<path d="M64.3767 22.9063C64.3767 22.9063 47.7448 23.2019 47.7448 25.7142C47.7448 25.7142 46.4544 27.0443 55.3439 25.5664C55.3439 25.5664 76.9939 21.2807 91.0449 22.463C91.0449 22.463 110.258 22.1674 117.857 24.6797C117.857 24.6797 96.0632 18.4728 65.3803 22.7586L64.3767 22.9063Z" fill="#2B2A29"/>
<path d="M12.904 5.3203V7.0937C13.4776 6.94592 13.9077 6.94592 14.4812 6.79814V7.24149C13.0474 7.53705 11.6136 7.83262 10.61 7.9804C10.61 7.9804 10.61 8.12819 10.4666 8.12819L10.3232 7.38927H11.0401V4.28582H11.6136C11.6136 4.4336 11.6136 4.4336 11.4703 4.4336V7.24149L12.4739 7.0937V3.54691H13.0474C13.0474 3.54691 13.0474 3.69469 12.904 3.69469V4.87695H14.1944V5.3203H12.904ZM17.062 3.39912H15.0547C15.1981 5.76365 15.6282 7.53705 16.3451 7.53705C16.4885 7.53705 16.6319 7.0937 16.6319 6.05922C16.7752 6.207 16.9186 6.35479 17.062 6.35479C16.9186 7.68484 16.7752 7.9804 16.2017 8.12819C15.0547 8.12819 14.6246 6.05922 14.3378 3.39912H10.4666V2.95577H14.6246C14.6246 2.36464 14.6246 1.77351 14.6246 1.18237H15.3415C15.3415 1.18237 15.3415 1.33016 15.1981 1.33016C15.1981 1.92129 15.1981 2.51242 15.1981 2.95577H17.2054V3.39912H17.062ZM13.9077 1.47794V1.92129H11.0401V1.47794H13.9077ZM15.6282 1.18237C16.0584 1.47794 16.6319 2.06907 16.7752 2.36464L16.3451 2.66021C16.2017 2.36464 15.7716 1.77351 15.3415 1.47794L15.6282 1.18237Z" fill="#2B2A29"/>
<path d="M24.3743 3.99021H21.3634V7.09366H24.0876V7.53701H18.2091V7.24144H20.7899V3.99021H17.7789V3.54686H20.7899V1.03455H21.5068C21.5068 1.03455 21.5068 1.18233 21.3634 1.18233V3.39908H24.3743V3.99021Z" fill="#2B2A29"/>
<path d="M26.9551 4.13795L26.0948 3.84239L26.2382 3.25126L27.2418 3.6946V2.95569H27.9587V3.84239L28.6756 3.39904L28.819 3.99017L27.8153 4.28574L28.3888 4.87687L27.8153 5.17244L27.2418 4.43352L26.6683 5.02465L26.0948 4.72909L26.9551 4.13795Z" fill="#C64750"/>
<path d="M30.6829 6.35459H29.6793V1.32996H30.6829V6.35459Z" fill="#C64750"/>
<path d="M33.6938 6.3547C33.1203 6.3547 32.5468 6.20692 32.26 5.91135C31.9733 5.61579 31.6865 5.17244 31.6865 4.72909V4.5813C31.6865 4.13795 31.8299 3.6946 32.26 3.39904C32.6902 3.10347 33.1203 2.95569 33.6938 2.95569C34.2673 2.95569 34.6975 3.10347 34.9842 3.39904C35.271 3.6946 35.4143 4.13795 35.4143 4.5813V5.02465H32.8335C32.8335 5.32022 32.9769 5.468 33.1203 5.76357C33.2637 5.91135 33.5504 6.05914 33.9806 6.05914C34.2673 6.05914 34.4107 6.05914 34.6975 5.91135C34.9842 5.76357 35.1276 5.76357 35.271 5.76357L35.5577 6.20692C35.4143 6.3547 35.1276 6.3547 34.8408 6.50249C34.2673 6.3547 33.9806 6.3547 33.6938 6.3547ZM33.5504 3.39904C33.2637 3.39904 33.1203 3.39904 32.9769 3.54682C32.8335 3.6946 32.6902 3.84239 32.6902 4.13795H34.4107C34.4107 3.99017 34.4107 3.6946 34.2673 3.54682C33.9806 3.54682 33.8372 3.39904 33.5504 3.39904Z" fill="#C64750"/>
<path d="M35.9879 4.72909C35.9879 4.13795 36.1312 3.6946 36.418 3.39904C36.7047 3.10347 37.1349 2.95569 37.7084 2.95569C37.9951 2.95569 38.1385 2.95569 38.4253 3.10347C38.712 3.25125 38.8554 3.25126 38.8554 3.54682V2.95569H39.7157V6.3547C39.7157 6.79805 39.5723 7.09362 39.1422 7.38919C38.8554 7.68475 38.2819 7.68475 37.7084 7.68475C37.565 7.68475 37.2783 7.68475 36.9915 7.68475C36.7047 7.68475 36.5614 7.53697 36.2746 7.53697L36.418 6.94584C36.5614 6.94584 36.7047 7.09362 36.9915 7.09362C37.1349 7.09362 37.4216 7.09362 37.565 7.09362C37.8518 7.09362 38.1385 7.09362 38.2819 6.94584C38.5687 6.79805 38.712 6.65027 38.712 6.3547V6.05914C38.5687 6.20692 38.4253 6.3547 38.2819 6.3547C38.1385 6.3547 37.8518 6.50249 37.7084 6.50249C37.1349 6.50249 36.7047 6.3547 36.418 6.05914C36.1312 5.61579 35.9879 5.32022 35.9879 4.72909ZM36.8481 4.72909C36.8481 5.02465 36.9915 5.32022 37.1349 5.468C37.2783 5.61579 37.565 5.76357 37.8518 5.76357C37.9951 5.76357 38.2819 5.76357 38.4253 5.61579C38.5687 5.468 38.712 5.468 38.712 5.32022V3.84239C38.5687 3.6946 38.5687 3.54682 38.4253 3.54682C38.2819 3.54682 38.1385 3.39904 37.8518 3.39904C37.565 3.39904 37.2783 3.54682 37.1349 3.6946C36.9915 3.84239 36.8481 4.28574 36.8481 4.72909Z" fill="#C64750"/>
<path d="M43.3002 6.35454C43.3002 6.20675 43.3002 6.20675 43.1568 6.05897C43.0134 5.91119 43.1568 5.91119 43.1568 5.7634C43.0134 5.91119 42.87 6.05897 42.5833 6.20675C42.2965 6.35454 42.1531 6.35454 41.8664 6.35454C41.4363 6.35454 41.0061 6.20675 40.8627 6.05897C40.576 5.91119 40.4326 5.61562 40.4326 5.32005C40.4326 5.02449 40.576 4.72892 40.8627 4.58114C41.1495 4.43335 41.723 4.28557 42.2965 4.28557H43.0134V3.99001C43.0134 3.84222 43.0134 3.69444 42.87 3.54666C42.7266 3.39887 42.5833 3.39887 42.2965 3.39887C42.0098 3.39887 41.8664 3.39887 41.723 3.54666C41.5796 3.69444 41.5796 3.84222 41.5796 3.84222H40.7194C40.7194 3.54666 40.8627 3.39887 41.1495 3.10331C41.4363 2.95552 41.8664 2.80774 42.4399 2.80774C42.87 2.80774 43.3002 2.95552 43.5869 3.10331C43.8737 3.25109 44.017 3.54666 44.017 3.99001V5.46784C44.017 5.61562 44.017 5.7634 44.017 5.91119C44.017 6.05897 44.017 6.20675 44.1604 6.35454H43.3002ZM42.0098 5.7634C42.2965 5.7634 42.4399 5.7634 42.7266 5.61562C42.87 5.46784 43.0134 5.46784 43.1568 5.32005V4.8767H42.4399C42.1531 4.8767 42.0098 4.8767 41.723 5.02449C41.5796 5.17227 41.4363 5.32005 41.4363 5.46784C41.4363 5.61562 41.4363 5.7634 41.5796 5.7634C41.723 5.7634 41.8664 5.7634 42.0098 5.7634Z" fill="#C64750"/>
<path d="M46.8845 5.76357C47.1713 5.76357 47.3147 5.76357 47.4581 5.61579C47.6014 5.468 47.7448 5.32022 47.7448 5.17244H48.6051C48.6051 5.468 48.4617 5.76357 48.1749 6.05914C47.8882 6.3547 47.4581 6.35471 47.0279 6.35471C46.4544 6.35471 45.8809 6.20692 45.5941 5.91136C45.3074 5.61579 45.0206 5.17244 45.0206 4.72909V4.5813C45.0206 4.13795 45.164 3.69461 45.5941 3.39904C45.8809 3.10347 46.4544 2.95569 47.0279 2.95569C47.4581 2.95569 47.8882 3.10347 48.1749 3.25126C48.4617 3.54682 48.6051 3.84239 48.6051 4.13796H47.7448C47.7448 3.99017 47.6014 3.84239 47.4581 3.69461C47.3147 3.54682 47.1713 3.54682 46.8845 3.54682C46.5978 3.54682 46.311 3.6946 46.1677 3.84239C46.0243 3.99017 45.8809 4.28574 45.8809 4.5813V4.72909C45.8809 5.02466 46.0243 5.32022 46.1677 5.46801C46.1677 5.76357 46.4544 5.76357 46.8845 5.76357Z" fill="#C64750"/>
<path d="M50.7558 5.02465L50.8991 5.32022L51.7594 2.95569H52.763L51.0425 6.94584C50.8991 7.2414 50.7558 7.38919 50.6124 7.53697C50.469 7.68475 50.1822 7.83254 49.7521 7.83254C49.6087 7.83254 49.6087 7.83254 49.4654 7.83254C49.322 7.83254 49.322 7.83254 49.1786 7.83254L49.322 7.2414H49.4654H49.6087C49.7521 7.2414 49.8955 7.2414 50.0389 7.09362C50.1822 6.94584 50.1822 6.94584 50.3256 6.79805L50.469 6.50249L48.8918 2.95569H49.8955L50.7558 5.02465Z" fill="#C64750"/>
<path d="M54.0534 4.13779L53.1932 3.84222L53.3366 3.25109L54.3402 3.54666V2.80774H55.0571V3.69444L55.9174 3.39887L56.0607 3.99001L55.0571 4.28557L55.6306 4.8767L55.0571 5.17227L54.4836 4.43336L53.9101 5.02449L53.3366 4.72892L54.0534 4.13779Z" fill="#C64750"/>
</g>
<defs>
<clipPath id="clip0">
<rect width="118" height="30" fill="white"/>
</clipPath>
</defs>
</svg>
